<?xml version="1.0" standalone="no"?><!DOCTYPE svg PUBLIC "-//W3C//DTD SVG 1.1//EN" "http://www.w3.org/Graphics/SVG/1.1/DTD/svg11.dtd"><svg t="1498787744349" class="icon" style="" viewBox="0 0 1024 1024" version="1.1" xmlns="http://www.w3.org/2000/svg" p-id="4028" xmlns:xlink="http://www.w3.org/1999/xlink" width="56" height="56"><defs><style type="text/css"></style></defs><path d="M166.061035 232.470588q-12.235294-56.470588-32.941176-112.941176t-51.764706-115.764706l80 0q23.529412 45.176471 44.705882 102.117647t41.882353 126.588235l-81.882353 0zM1011.237506 885.647059q3.764706 114.823529-117.647059 112l-67.764706 0q-130.823529 2.823529-127.058824-126.117647l0-303.058824-129.882353 0 0 22.588235q20.705882 299.294118-290.823529 432.941176l0-58.352941q221.176471-112.941176 208-380.235294l0-16.941176-129.882353 0 0-438.588235 95.058824 0q-26.352941-53.647059-33.882353-129.882353l80.941176 0q4.705882 71.529412 35.764706 129.882353l230.588235 0q20.705882-52.705882 33.882353-129.882353l83.764706 0q-7.529412 37.647059-16.941176 70.117647t-22.588235 59.764706l91.294118 0 0 294.588235q2.823529 148.705882-130.823529 144l-21.647059 0 0 303.058824q-10.352941 67.764706 87.529412 63.058824 90.352941 3.764706 81.882353-57.411765l0-26.352941 60.235294 0 0 34.823529zM781.590447 505.411765q70.588235 0 70.588235-72.470588l0-240-410.352941 0 0 312.470588 339.764706 0zM356.178682 817.882353q-53.647059 44.235294-113.882353 75.764706t-129.882353 55.058824l0-564.705882-99.764706 0 0-58.352941 188.235294 0 0 505.411765q35.764706-13.176471 74.352941-32t80.941176-43.294118l0 62.117647z" p-id="4029" fill="#515151"></path></svg>