<?xml version="1.0" standalone="no"?><!DOCTYPE svg PUBLIC "-//W3C//DTD SVG 1.1//EN" "http://www.w3.org/Graphics/SVG/1.1/DTD/svg11.dtd"><svg t="1498787272307" class="icon" style="" viewBox="0 0 1024 1024" version="1.1" xmlns="http://www.w3.org/2000/svg" p-id="2374" xmlns:xlink="http://www.w3.org/1999/xlink" width="80" height="80"><defs><style type="text/css"></style></defs><path d="M0 0.999024h1023.000976v1023.000976H0z" fill="#ffffff" p-id="2375" class=""></path><path d="M315.192195 381.670275h417.592195c16.965432 0 30.72-13.754568 30.72-30.72 0-16.966431-13.754568-30.72-30.72-30.72h-417.592195c-16.966431 0-30.72 13.753569-30.72 30.72 0 16.965432 13.754568 30.72 30.72 30.72M309.198049 502.21056h429.580488c16.966431 0 30.72-13.754568 30.72-30.72s-13.753569-30.72-30.72-30.72h-429.580488c-16.966431 0-30.72 13.754568-30.72 30.72s13.753569 30.72 30.72 30.72M813.705366 201.895836H543.41632l-33.545241-64.722794c-7.805378-15.06329-26.346271-20.945545-41.409561-13.139169-15.06329 7.807376-20.946544 26.34727-13.139169 41.41056l18.891551 36.451403H222.282927c-16.966431 0-30.72 13.753569-30.72 30.72s13.753569 30.72 30.72 30.72h591.422439c16.965432 0 30.72-13.753569 30.72-30.72s-13.754568-30.72-30.72-30.72M742.194201 562.415766H293.793093c-26.620004 0-48.19993 25.577022-48.19993 52.197026v131.711376c0 26.620004 21.579926 48.198931 48.19993 48.198931h240.241389l-41.015945 132.870243 194.540019-132.870243h54.635645c26.620004 0 48.200929-21.578927 48.200929-48.198931v-131.711376c0-26.621003-21.580925-52.197026-48.200929-52.197026m-10.409834 161.055719c0 9.515707-7.713467 17.229175-17.229175 17.229175l-42.04494-0.479532-101.235138 84.585397 31.21152-84.105865h-287.049678c-9.515707 0-17.229175-7.713467-17.229175-17.229175V638.046907c0-9.515707 7.713467-17.229175 17.229175-17.229174h399.117237c9.515707 0 17.229175 7.713467 17.229175 17.229174v85.424578z" fill="#0f88eb" p-id="2376" class=""></path></svg>